<svg width="125" height="27" viewBox="0 0 125 27" fill="none" xmlns="http://www.w3.org/2000/svg">
<circle cx="11.2811" cy="14.8481" r="11.2811" fill="white"/>
<rect x="7.31348" y="17.5842" width="2.45835" height="8.11256" rx="1.22918" transform="rotate(-90 7.31348 17.5842)" fill="#3D3D3D"/>
<rect x="17.5156" y="18.4694" width="2.58127" height="12.0595" rx="1.29063" transform="rotate(155 17.5156 18.4694)" fill="#3D3D3D"/>
<rect x="7.07227" y="22.0441" width="2.58127" height="14.8364" rx="1.29063" transform="rotate(-155 7.07227 22.0441)" fill="#3D3D3D"/>
<circle cx="16.9686" cy="20.2957" r="1.19616" fill="#3D3D3D"/>
<path d="M110.019 10.7193C110.019 10.7193 109.08 8.37177 104.62 8.37177C100.16 8.37177 100.16 11.9712 100.16 11.9712C99.769 15.5701 108.278 16.1961 109.784 17.9174C110.88 19.1693 110.645 20.1864 110.019 21.2821C106.733 24.7245 102.273 23.5509 99.1431 21.2821" stroke="white" stroke-width="2.91634" stroke-linecap="round"/>
<path fill-rule="evenodd" clip-rule="evenodd" d="M37.8715 24.8827C42.6681 24.8827 46.5565 20.9243 46.5565 16.0413C46.5565 11.1583 42.6681 7.19983 37.8715 7.19983C33.0749 7.19983 29.1865 11.1583 29.1865 16.0413C29.1865 20.9243 33.0749 24.8827 37.8715 24.8827ZM37.8706 21.9103C40.9387 21.9103 43.4259 19.2479 43.4259 15.9638C43.4259 12.6796 40.9387 10.0173 37.8706 10.0173C34.8025 10.0173 32.3154 12.6796 32.3154 15.9638C32.3154 19.2479 34.8025 21.9103 37.8706 21.9103Z" fill="white"/>
<path fill-rule="evenodd" clip-rule="evenodd" d="M37.8747 21.9054C40.9428 21.9054 43.43 19.243 43.43 15.9589C43.43 15.36 43.3473 14.7819 43.1935 14.2368H44.9376C45.8324 14.2368 46.5578 14.9621 46.5578 15.8569V23.2576C46.5578 24.1524 45.8324 24.8778 44.9376 24.8778H38.0064C37.1116 24.8778 36.3862 24.1524 36.3862 23.2576V21.6895C36.86 21.8302 37.3592 21.9054 37.8747 21.9054Z" fill="white"/>
<rect x="64.0874" width="3.2862" height="24.7248" rx="1.6431" fill="white"/>
<rect x="89.7524" y="7.1994" width="3.12972" height="17.5264" rx="1.56486" fill="white"/>
<rect x="69.0864" y="8.2395" width="3.2862" height="18.8156" rx="1.6431" transform="rotate(-25 69.0864 8.2395)" fill="white"/>
<rect x="83.8467" y="6.82501" width="3.2862" height="18.8881" rx="1.6431" transform="rotate(25 83.8467 6.82501)" fill="white"/>
<path fill-rule="evenodd" clip-rule="evenodd" d="M58.2194 24.7258C62.7567 24.7258 66.4349 20.8024 66.4349 15.9626C66.4349 11.1228 62.7567 7.1994 58.2194 7.1994C53.6821 7.1994 50.0039 11.1228 50.0039 15.9626C50.0039 20.8024 53.6821 24.7258 58.2194 24.7258ZM58.7662 21.9062C61.8774 21.9062 64.3996 19.2439 64.3996 15.9597C64.3996 12.6756 61.8774 10.0133 58.7662 10.0133C55.6549 10.0133 53.1327 12.6756 53.1327 15.9597C53.1327 19.2439 55.6549 21.9062 58.7662 21.9062Z" fill="white"/>
<path d="M58.1411 22.5333L66.0436 21.5944L65.6524 24.7241H58.1411V22.5333Z" fill="white"/>
<path d="M118.074 3.59778V19.2464C118.074 19.2464 118.327 22.2721 120.334 22.8455C121.743 23.2479 122.995 23.2367 122.995 23.2367" stroke="white" stroke-width="2.91634" stroke-linecap="round"/>
<path d="M120.187 9.54425H122.613" stroke="white" stroke-width="2.91634" stroke-linecap="round"/>
</svg>
